<svg width="186" height="151" viewBox="0 0 186 151" fill="none" xmlns="http://www.w3.org/2000/svg">
<path d="M88.6 20.4C88.6 32.5333 88.8667 50.2 89.4 73.4C89.5333 79.1333 89.6667 86.2 89.8 94.6C89.9333 103 90 112.667 90 123.6C90 135.867 89.9333 144.6 89.8 149.8L77.8 150C75.1333 150.133 71.2 150.2 66 150.2C63.6 150.2 61.7333 149.933 60.4 149.4C59.2 148.867 58.6 147.8 58.6 146.2V145.8L56 145.6L55.6 145.2C52.1333 148.133 47.8 149.6 42.6 149.6C36.7333 149.6 31.5333 148.533 27 146.4C22.6 144.267 18.9333 141.467 16 138C5.46667 129.6 0.2 112.6 0.2 87C0.2 76.7333 1.66667 67.6667 4.6 59.8C7.53333 51.9333 11.9333 46.8667 17.8 44.6C22.7333 42.6 28.9333 41.6 36.4 41.6C44.4 41.6 50.5333 42.7333 54.8 45L54.4 24.6C54.4 21.5333 54.5333 17.8667 54.8 13.6L55.4 5.59999V3.4C55.4 2.73333 57 2.06666 60.2 1.39999C63.5333 0.733322 67.1333 0.399989 71 0.399989C76.2 0.399989 80.7333 0.799992 84.6 1.6V4.99999L88.6 5.59999V20.4ZM83.8 143.8C83.9333 139.133 84 131.867 84 122C84 111.2 83.9333 101.6 83.8 93.2C83.6667 84.6667 83.5333 77.4667 83.4 71.6C82.8667 47.6 82.6 29.2 82.6 16.4V3.19999C79.8 2.66666 75.9333 2.4 71 2.4C67.6667 2.4 64.5333 2.53333 61.6 2.79999C58.8 2.93333 57.4 3.13333 57.4 3.4V5.59999L57 12.6C56.7333 15.1333 56.6 19.1333 56.6 24.6V33.8C56.6 39.8 56.6667 44.8667 56.8 49C56.2667 47.5333 54 46.2667 50 45.2C46 44.1333 41.4 43.6 36.2 43.6C30.2 43.6 24.2667 44.5333 18.4 46.4C12.8 48.4 8.66667 53.1333 6 60.6C3.46667 68.0667 2.2 76.8667 2.2 87C2.46667 98.4667 3.4 108.133 5 116C6.73333 123.867 10.2667 130.467 15.6 135.8C21.0667 141 29.0667 143.6 39.6 143.6C46.4 143.6 51.3333 140.667 54.4 134.8C54.5333 134.267 54.8 134 55.2 134C55.7333 134 56.2 135.533 56.6 138.6C57 141.667 57.0667 143.333 56.8 143.6C59.8667 144 63.2667 144.2 67 144.2L75.8 144C77.6667 143.867 80.3333 143.8 83.8 143.8ZM45.4 66.8C49.4 66.8 52.2 67.3333 53.8 68.4C55.4 69.3333 56.4 71.2667 56.8 74.2C57.3333 77.1333 57.6 82.3333 57.6 89.8C57.6 96.4667 57.2667 101.8 56.6 105.8C56.0667 109.8 54.7333 113 52.6 115.4C50.6 117.667 47.4667 118.8 43.2 118.8C37.7333 118.8 33.3333 116.2 30 111C26.6667 105.8 25 99.6667 25 92.6C25 87.4 25.4667 83.5333 26.4 81C27.8667 71.5333 34.2 66.8 45.4 66.8ZM55.6 82.2C55.6 78.6 55.2 76.1333 54.4 74.8C53.7333 73.4667 52.0667 72.8 49.4 72.8C39.2667 72.8 33.6 76.9333 32.4 85.2L32.2 85.6C31.4 87.4667 31 90.2667 31 94C31 109.2 35.0667 116.8 43.2 116.8C46.9333 116.8 49.6667 115.733 51.4 113.6C53.2667 111.333 54.4 108.4 54.8 104.8C55.3333 101.067 55.6 96.0667 55.6 89.8V82.2ZM130.578 17.6C130.845 21.8667 130.978 25.5333 130.978 28.6C130.978 31.4 130.911 33.7333 130.778 35.6L130.578 43.6C134.578 42.2667 139.378 41.6 144.978 41.6C158.178 41.6 168.178 45.7333 174.978 54C181.778 62.2667 185.178 74.6 185.178 91C184.778 102.6 183.645 112.533 181.778 120.8C179.911 128.933 176.178 135.8 170.578 141.4C165.111 146.867 156.978 149.6 146.178 149.6C139.245 149.6 134.111 147.2 130.778 142.4V146.2C130.778 147.8 130.111 148.867 128.778 149.4C127.578 149.933 125.778 150.2 123.378 150.2C118.178 150.2 114.245 150.133 111.578 150L99.5781 149.8L99.3781 145.8H95.5781C95.4448 140.6 95.3781 131.867 95.3781 119.6C95.3781 109.2 95.4448 99.9333 95.5781 91.8C95.7115 83.6667 95.8448 76.6667 95.9781 70.8C96.5115 47.0667 96.7781 28.9333 96.7781 16.4V1.39999C100.245 0.733322 104.778 0.399989 110.378 0.399989C114.245 0.399989 117.778 0.733322 120.978 1.39999C124.311 2.06666 125.978 2.73333 125.978 3.4V5.59999C128.645 6.26666 129.978 6.86666 129.978 7.39999V9.59999L130.578 17.6ZM123.978 3.4C123.978 3.13333 122.511 2.93333 119.578 2.79999C116.778 2.53333 113.711 2.4 110.378 2.4C105.445 2.4 101.578 2.66666 98.7781 3.19999V16.4C98.7781 29.2 98.5115 47.6 97.9781 71.6C97.8448 77.3333 97.7115 84.4 97.5781 92.8C97.4448 101.2 97.3781 110.867 97.3781 121.8C97.3781 131.8 97.4448 139.133 97.5781 143.8C101.845 143.8 105.111 143.867 107.378 144L118.178 144.2C122.578 144.2 124.778 143.533 124.778 142.2C124.778 140.733 124.845 139 124.978 137C125.111 135 125.511 134 126.178 134C126.311 134 126.578 134.267 126.978 134.8C129.778 140.667 134.711 143.6 141.778 143.6C152.445 143.6 160.445 141 165.778 135.8C171.111 130.6 174.578 124.133 176.178 116.4C177.778 108.667 178.778 98.8667 179.178 87C179.178 76.8667 177.845 68.0667 175.178 60.6C172.645 53.1333 168.578 48.4 162.978 46.4C158.445 44.5333 152.445 43.6 144.978 43.6C139.778 43.6 135.111 44.1333 130.978 45.2C126.845 46.2667 124.711 47.5333 124.578 49C124.711 44.8667 124.778 39.8 124.778 33.8V24.6C124.778 19.1333 124.645 15.1333 124.378 12.6L123.978 5.59999V3.4ZM156.378 92.6C156.378 99.6667 154.711 105.8 151.378 111C148.045 116.2 143.645 118.8 138.178 118.8C133.911 118.8 130.711 117.667 128.578 115.4C126.578 113 125.245 109.8 124.578 105.8C124.045 101.8 123.778 96.4667 123.778 89.8C123.778 82.3333 123.978 77.1333 124.378 74.2C124.911 71.2667 125.978 69.3333 127.578 68.4C129.178 67.3333 131.978 66.8 135.978 66.8C147.178 66.8 153.511 71.5333 154.978 81C155.911 83.5333 156.378 87.4 156.378 92.6ZM152.978 81.2C152.311 77.8667 150.978 75.6667 148.978 74.6C146.978 73.4 143.978 72.8 139.978 72.8C136.645 72.8 134.311 73.2667 132.978 74.2C131.645 75.1333 130.778 76.9333 130.378 79.6C129.978 82.2667 129.778 87 129.778 93.8V100C129.778 105.6 130.245 109.8 131.178 112.6C132.245 115.4 134.578 116.8 138.178 116.8C143.111 116.8 147.045 114.4 149.978 109.6C152.911 104.8 154.378 99.1333 154.378 92.6C154.378 92.2 154.378 90.7333 154.378 88.2C154.378 85.6667 153.978 83.4667 153.178 81.6L152.978 81.2Z" fill="#12AB4F"/>
</svg>
