<svg width="40" height="31" viewBox="0 0 40 31" fill="none" xmlns="http://www.w3.org/2000/svg">
<path d="M20.12 30H15.68V28.36C15.68 28.04 15.68 27.7467 15.68 27.48C15.68 27.1867 15.68 26.8667 15.68 26.52C15.4933 27 15.2 27.4667 14.8 27.92C14.4267 28.3467 13.9733 28.7333 13.44 29.08C12.88 29.4533 12.24 29.7467 11.52 29.96C10.8267 30.1733 10.08 30.28 9.28 30.28C8.16 30.28 7.12 30.08 6.16 29.68C5.22667 29.28 4.4 28.72 3.68 28C2.96 27.28 2.4 26.4533 2 25.52C1.6 24.5867 1.4 23.5733 1.4 22.48C1.4 21.4133 1.6 20.4 2 19.44C2.4 18.48 2.96 17.6533 3.68 16.96C4.4 16.2667 5.22667 15.72 6.16 15.32C7.12 14.8933 8.16 14.68 9.28 14.68C10.0267 14.68 10.7467 14.7867 11.44 15C12.16 15.2133 12.8 15.4933 13.36 15.84C13.92 16.2133 14.3733 16.6133 14.72 17.04C15.0667 17.4667 15.3467 17.9067 15.56 18.36C15.5333 17.64 15.52 17.0533 15.52 16.6C15.52 16.1467 15.52 15.56 15.52 14.84V1.56H12.68V-2.38419e-06H17.16V28.44H20.12V30ZM9.28 16.28C8.37333 16.28 7.54667 16.44 6.8 16.76C6.05333 17.08 5.4 17.52 4.84 18.08C4.28 18.64 3.84 19.3067 3.52 20.08C3.2 20.8267 3.04 21.6267 3.04 22.48C3.04 23.36 3.2 24.1867 3.52 24.96C3.86667 25.7333 4.33333 26.3867 4.92 26.92C5.48 27.48 6.12 27.92 6.84 28.24C7.58667 28.5333 8.4 28.68 9.28 28.68C10.1333 28.68 10.92 28.5333 11.64 28.24C12.3867 27.92 13.0533 27.48 13.64 26.92C14.2267 26.3867 14.68 25.7333 15 24.96C15.3467 24.1867 15.52 23.36 15.52 22.48C15.52 21.6 15.3467 20.7733 15 20C14.6533 19.2 14.1867 18.52 13.6 17.96C13.04 17.4267 12.3867 17.0133 11.64 16.72C10.8933 16.4267 10.1067 16.28 9.28 16.28Z" fill="black"/>
<path d="M28.3959 30H18.8359V28.44H21.2759V3.56H18.8359V2H27.6759C28.9026 2 30.0359 2.13333 31.0759 2.4C32.1159 2.66667 32.9959 3.08 33.7159 3.64C34.4626 4.2 35.0359 4.93333 35.4359 5.84C35.8359 6.72 36.0359 7.77333 36.0359 9C36.0359 10.6533 35.6226 12.1067 34.7959 13.36C33.9959 14.6133 32.7559 15.4667 31.0759 15.92C31.8492 16.08 32.5959 16.3467 33.3159 16.72C34.0626 17.0933 34.7159 17.5733 35.2759 18.16C35.8359 18.7467 36.2759 19.4267 36.5959 20.2C36.9159 20.9733 37.0759 21.84 37.0759 22.8C37.0759 24 36.8226 25.0533 36.3159 25.96C35.8359 26.84 35.2092 27.5733 34.4359 28.16C33.6092 28.7733 32.6626 29.24 31.5959 29.56C30.5559 29.8533 29.4892 30 28.3959 30ZM22.9159 16.72V28.44H28.2359C29.2226 28.44 30.1426 28.32 30.9959 28.08C31.8759 27.84 32.6492 27.4667 33.3159 26.96C33.9559 26.5067 34.4626 25.92 34.8359 25.2C35.2359 24.48 35.4359 23.64 35.4359 22.68C35.4359 21.64 35.2092 20.7467 34.7559 20C34.3292 19.2267 33.7559 18.6133 33.0359 18.16C32.2892 17.68 31.4359 17.32 30.4759 17.08C29.5426 16.84 28.5692 16.72 27.5559 16.72H22.9159ZM22.9159 3.56V15.16H28.1959C30.1159 15.16 31.6226 14.6133 32.7159 13.52C33.8359 12.4 34.3959 10.9333 34.3959 9.12C34.3959 8.13333 34.2359 7.28 33.9159 6.56C33.5959 5.84 33.1426 5.26667 32.5559 4.84C31.9959 4.41333 31.3292 4.09333 30.5559 3.88C29.8092 3.66667 28.9692 3.56 28.0359 3.56H22.9159Z" fill="black"/>
</svg>
