<svg width="60" height="60" viewBox="0 0 60 60" fill="none" xmlns="http://www.w3.org/2000/svg">
<circle cx="30" cy="30" r="30" fill="white"/>
<path d="M29.65 16.1C29.65 19.1333 29.7167 23.55 29.85 29.35C29.8833 30.7833 29.9167 32.55 29.95 34.65C29.9833 36.75 30 39.1667 30 41.9C30 44.9667 29.9833 47.15 29.95 48.45L26.95 48.5C26.2833 48.5333 25.3 48.55 24 48.55C23.4 48.55 22.9333 48.4833 22.6 48.35C22.3 48.2167 22.15 47.95 22.15 47.55V47.45L21.5 47.4L21.4 47.3C20.5333 48.0333 19.45 48.4 18.15 48.4C16.6833 48.4 15.3833 48.1333 14.25 47.6C13.15 47.0667 12.2333 46.3667 11.5 45.5C8.86667 43.4 7.55 39.15 7.55 32.75C7.55 30.1833 7.91667 27.9167 8.65 25.95C9.38333 23.9833 10.4833 22.7167 11.95 22.15C13.1833 21.65 14.7333 21.4 16.6 21.4C18.6 21.4 20.1333 21.6833 21.2 22.25L21.1 17.15C21.1 16.3833 21.1333 15.4667 21.2 14.4L21.35 12.4V11.85C21.35 11.6833 21.75 11.5167 22.55 11.35C23.3833 11.1833 24.2833 11.1 25.25 11.1C26.55 11.1 27.6833 11.2 28.65 11.4V12.25L29.65 12.4V16.1ZM28.45 46.95C28.4833 45.7833 28.5 43.9667 28.5 41.5C28.5 38.8 28.4833 36.4 28.45 34.3C28.4167 32.1667 28.3833 30.3667 28.35 28.9C28.2167 22.9 28.15 18.3 28.15 15.1V11.8C27.45 11.6667 26.4833 11.6 25.25 11.6C24.4167 11.6 23.6333 11.6333 22.9 11.7C22.2 11.7333 21.85 11.7833 21.85 11.85V12.4L21.75 14.15C21.6833 14.7833 21.65 15.7833 21.65 17.15V19.45C21.65 20.95 21.6667 22.2167 21.7 23.25C21.5667 22.8833 21 22.5667 20 22.3C19 22.0333 17.85 21.9 16.55 21.9C15.05 21.9 13.5667 22.1333 12.1 22.6C10.7 23.1 9.66667 24.2833 9 26.15C8.36667 28.0167 8.05 30.2167 8.05 32.75C8.11667 35.6167 8.35 38.0333 8.75 40C9.18333 41.9667 10.0667 43.6167 11.4 44.95C12.7667 46.25 14.7667 46.9 17.4 46.9C19.1 46.9 20.3333 46.1667 21.1 44.7C21.1333 44.5667 21.2 44.5 21.3 44.5C21.4333 44.5 21.55 44.8833 21.65 45.65C21.75 46.4167 21.7667 46.8333 21.7 46.9C22.4667 47 23.3167 47.05 24.25 47.05L26.45 47C26.9167 46.9667 27.5833 46.95 28.45 46.95ZM18.85 27.7C19.85 27.7 20.55 27.8333 20.95 28.1C21.35 28.3333 21.6 28.8167 21.7 29.55C21.8333 30.2833 21.9 31.5833 21.9 33.45C21.9 35.1167 21.8167 36.45 21.65 37.45C21.5167 38.45 21.1833 39.25 20.65 39.85C20.15 40.4167 19.3667 40.7 18.3 40.7C16.9333 40.7 15.8333 40.05 15 38.75C14.1667 37.45 13.75 35.9167 13.75 34.15C13.75 32.85 13.8667 31.8833 14.1 31.25C14.4667 28.8833 16.05 27.7 18.85 27.7ZM21.4 31.55C21.4 30.65 21.3 30.0333 21.1 29.7C20.9333 29.3667 20.5167 29.2 19.85 29.2C17.3167 29.2 15.9 30.2333 15.6 32.3L15.55 32.4C15.35 32.8667 15.25 33.5667 15.25 34.5C15.25 38.3 16.2667 40.2 18.3 40.2C19.2333 40.2 19.9167 39.9333 20.35 39.4C20.8167 38.8333 21.1 38.1 21.2 37.2C21.3333 36.2667 21.4 35.0167 21.4 33.45V31.55ZM40.1445 15.4C40.2112 16.4667 40.2445 17.3833 40.2445 18.15C40.2445 18.85 40.2279 19.4333 40.1945 19.9L40.1445 21.9C41.1445 21.5667 42.3445 21.4 43.7445 21.4C47.0445 21.4 49.5445 22.4333 51.2445 24.5C52.9445 26.5667 53.7945 29.65 53.7945 33.75C53.6945 36.65 53.4112 39.1333 52.9445 41.2C52.4779 43.2333 51.5445 44.95 50.1445 46.35C48.7779 47.7167 46.7445 48.4 44.0445 48.4C42.3112 48.4 41.0279 47.8 40.1945 46.6V47.55C40.1945 47.95 40.0279 48.2167 39.6945 48.35C39.3945 48.4833 38.9445 48.55 38.3445 48.55C37.0445 48.55 36.0612 48.5333 35.3945 48.5L32.3945 48.45L32.3445 47.45H31.3945C31.3612 46.15 31.3445 43.9667 31.3445 40.9C31.3445 38.3 31.3612 35.9833 31.3945 33.95C31.4279 31.9167 31.4612 30.1667 31.4945 28.7C31.6279 22.7667 31.6945 18.2333 31.6945 15.1V11.35C32.5612 11.1833 33.6945 11.1 35.0945 11.1C36.0612 11.1 36.9445 11.1833 37.7445 11.35C38.5779 11.5167 38.9945 11.6833 38.9945 11.85V12.4C39.6612 12.5667 39.9945 12.7167 39.9945 12.85V13.4L40.1445 15.4ZM38.4945 11.85C38.4945 11.7833 38.1279 11.7333 37.3945 11.7C36.6945 11.6333 35.9279 11.6 35.0945 11.6C33.8612 11.6 32.8945 11.6667 32.1945 11.8V15.1C32.1945 18.3 32.1279 22.9 31.9945 28.9C31.9612 30.3333 31.9279 32.1 31.8945 34.2C31.8612 36.3 31.8445 38.7167 31.8445 41.45C31.8445 43.95 31.8612 45.7833 31.8945 46.95C32.9612 46.95 33.7779 46.9667 34.3445 47L37.0445 47.05C38.1445 47.05 38.6945 46.8833 38.6945 46.55C38.6945 46.1833 38.7112 45.75 38.7445 45.25C38.7779 44.75 38.8779 44.5 39.0445 44.5C39.0779 44.5 39.1445 44.5667 39.2445 44.7C39.9445 46.1667 41.1779 46.9 42.9445 46.9C45.6112 46.9 47.6112 46.25 48.9445 44.95C50.2779 43.65 51.1445 42.0333 51.5445 40.1C51.9445 38.1667 52.1945 35.7167 52.2945 32.75C52.2945 30.2167 51.9612 28.0167 51.2945 26.15C50.6612 24.2833 49.6445 23.1 48.2445 22.6C47.1112 22.1333 45.6112 21.9 43.7445 21.9C42.4445 21.9 41.2779 22.0333 40.2445 22.3C39.2112 22.5667 38.6779 22.8833 38.6445 23.25C38.6779 22.2167 38.6945 20.95 38.6945 19.45V17.15C38.6945 15.7833 38.6612 14.7833 38.5945 14.15L38.4945 12.4V11.85ZM46.5945 34.15C46.5945 35.9167 46.1779 37.45 45.3445 38.75C44.5112 40.05 43.4112 40.7 42.0445 40.7C40.9779 40.7 40.1779 40.4167 39.6445 39.85C39.1445 39.25 38.8112 38.45 38.6445 37.45C38.5112 36.45 38.4445 35.1167 38.4445 33.45C38.4445 31.5833 38.4945 30.2833 38.5945 29.55C38.7279 28.8167 38.9945 28.3333 39.3945 28.1C39.7945 27.8333 40.4945 27.7 41.4945 27.7C44.2945 27.7 45.8779 28.8833 46.2445 31.25C46.4779 31.8833 46.5945 32.85 46.5945 34.15ZM45.7445 31.3C45.5779 30.4667 45.2445 29.9167 44.7445 29.65C44.2445 29.35 43.4945 29.2 42.4945 29.2C41.6612 29.2 41.0779 29.3167 40.7445 29.55C40.4112 29.7833 40.1945 30.2333 40.0945 30.9C39.9945 31.5667 39.9445 32.75 39.9445 34.45V36C39.9445 37.4 40.0612 38.45 40.2945 39.15C40.5612 39.85 41.1445 40.2 42.0445 40.2C43.2779 40.2 44.2612 39.6 44.9945 38.4C45.7279 37.2 46.0945 35.7833 46.0945 34.15C46.0945 34.05 46.0945 33.6833 46.0945 33.05C46.0945 32.4167 45.9945 31.8667 45.7945 31.4L45.7445 31.3Z" fill="black"/>
</svg>
