<svg width="47" height="38" viewBox="0 0 47 38" fill="none" xmlns="http://www.w3.org/2000/svg">
    <path
        d="M22.65 5.1C22.65 8.13333 22.7167 12.55 22.85 18.35C22.8833 19.7833 22.9167 21.55 22.95 23.65C22.9833 25.75 23 28.1667 23 30.9C23 33.9667 22.9833 36.15 22.95 37.45L19.95 37.5C19.2833 37.5333 18.3 37.55 17 37.55C16.4 37.55 15.9333 37.4833 15.6 37.35C15.3 37.2167 15.15 36.95 15.15 36.55V36.45L14.5 36.4L14.4 36.3C13.5333 37.0333 12.45 37.4 11.15 37.4C9.68333 37.4 8.38333 37.1333 7.25 36.6C6.15 36.0667 5.23333 35.3667 4.5 34.5C1.86667 32.4 0.55 28.15 0.55 21.75C0.55 19.1833 0.916667 16.9167 1.65 14.95C2.38333 12.9833 3.48333 11.7167 4.95 11.15C6.18333 10.65 7.73333 10.4 9.6 10.4C11.6 10.4 13.1333 10.6833 14.2 11.25L14.1 6.15C14.1 5.38333 14.1333 4.46667 14.2 3.4L14.35 1.4V0.85C14.35 0.683333 14.75 0.516666 15.55 0.349997C16.3833 0.183331 17.2833 0.0999973 18.25 0.0999973C19.55 0.0999973 20.6833 0.199998 21.65 0.399999V1.25L22.65 1.4V5.1ZM21.45 35.95C21.4833 34.7833 21.5 32.9667 21.5 30.5C21.5 27.8 21.4833 25.4 21.45 23.3C21.4167 21.1667 21.3833 19.3667 21.35 17.9C21.2167 11.9 21.15 7.3 21.15 4.1V0.799997C20.45 0.666666 19.4833 0.6 18.25 0.6C17.4167 0.6 16.6333 0.633333 15.9 0.699998C15.2 0.733331 14.85 0.783332 14.85 0.85V1.4L14.75 3.15C14.6833 3.78333 14.65 4.78333 14.65 6.15V8.45C14.65 9.95 14.6667 11.2167 14.7 12.25C14.5667 11.8833 14 11.5667 13 11.3C12 11.0333 10.85 10.9 9.55 10.9C8.05 10.9 6.56667 11.1333 5.1 11.6C3.7 12.1 2.66667 13.2833 2 15.15C1.36667 17.0167 1.05 19.2167 1.05 21.75C1.11667 24.6167 1.35 27.0333 1.75 29C2.18333 30.9667 3.06667 32.6167 4.4 33.95C5.76667 35.25 7.76667 35.9 10.4 35.9C12.1 35.9 13.3333 35.1667 14.1 33.7C14.1333 33.5667 14.2 33.5 14.3 33.5C14.4333 33.5 14.55 33.8833 14.65 34.65C14.75 35.4167 14.7667 35.8333 14.7 35.9C15.4667 36 16.3167 36.05 17.25 36.05L19.45 36C19.9167 35.9667 20.5833 35.95 21.45 35.95ZM11.85 16.7C12.85 16.7 13.55 16.8333 13.95 17.1C14.35 17.3333 14.6 17.8167 14.7 18.55C14.8333 19.2833 14.9 20.5833 14.9 22.45C14.9 24.1167 14.8167 25.45 14.65 26.45C14.5167 27.45 14.1833 28.25 13.65 28.85C13.15 29.4167 12.3667 29.7 11.3 29.7C9.93333 29.7 8.83333 29.05 8 27.75C7.16667 26.45 6.75 24.9167 6.75 23.15C6.75 21.85 6.86667 20.8833 7.1 20.25C7.46667 17.8833 9.05 16.7 11.85 16.7ZM14.4 20.55C14.4 19.65 14.3 19.0333 14.1 18.7C13.9333 18.3667 13.5167 18.2 12.85 18.2C10.3167 18.2 8.9 19.2333 8.6 21.3L8.55 21.4C8.35 21.8667 8.25 22.5667 8.25 23.5C8.25 27.3 9.26667 29.2 11.3 29.2C12.2333 29.2 12.9167 28.9333 13.35 28.4C13.8167 27.8333 14.1 27.1 14.2 26.2C14.3333 25.2667 14.4 24.0167 14.4 22.45V20.55ZM33.1445 4.4C33.2112 5.46667 33.2445 6.38333 33.2445 7.15C33.2445 7.85 33.2279 8.43333 33.1945 8.9L33.1445 10.9C34.1445 10.5667 35.3445 10.4 36.7445 10.4C40.0445 10.4 42.5445 11.4333 44.2445 13.5C45.9445 15.5667 46.7945 18.65 46.7945 22.75C46.6945 25.65 46.4112 28.1333 45.9445 30.2C45.4779 32.2333 44.5445 33.95 43.1445 35.35C41.7779 36.7167 39.7445 37.4 37.0445 37.4C35.3112 37.4 34.0279 36.8 33.1945 35.6V36.55C33.1945 36.95 33.0279 37.2167 32.6945 37.35C32.3945 37.4833 31.9445 37.55 31.3445 37.55C30.0445 37.55 29.0612 37.5333 28.3945 37.5L25.3945 37.45L25.3445 36.45H24.3945C24.3612 35.15 24.3445 32.9667 24.3445 29.9C24.3445 27.3 24.3612 24.9833 24.3945 22.95C24.4279 20.9167 24.4612 19.1667 24.4945 17.7C24.6279 11.7667 24.6945 7.23333 24.6945 4.1V0.349997C25.5612 0.183331 26.6945 0.0999973 28.0945 0.0999973C29.0612 0.0999973 29.9445 0.183331 30.7445 0.349997C31.5779 0.516666 31.9945 0.683333 31.9945 0.85V1.4C32.6612 1.56666 32.9945 1.71666 32.9945 1.85V2.4L33.1445 4.4ZM31.4945 0.85C31.4945 0.783332 31.1279 0.733331 30.3945 0.699998C29.6945 0.633333 28.9279 0.6 28.0945 0.6C26.8612 0.6 25.8945 0.666666 25.1945 0.799997V4.1C25.1945 7.3 25.1279 11.9 24.9945 17.9C24.9612 19.3333 24.9279 21.1 24.8945 23.2C24.8612 25.3 24.8445 27.7167 24.8445 30.45C24.8445 32.95 24.8612 34.7833 24.8945 35.95C25.9612 35.95 26.7779 35.9667 27.3445 36L30.0445 36.05C31.1445 36.05 31.6945 35.8833 31.6945 35.55C31.6945 35.1833 31.7112 34.75 31.7445 34.25C31.7779 33.75 31.8779 33.5 32.0445 33.5C32.0779 33.5 32.1445 33.5667 32.2445 33.7C32.9445 35.1667 34.1779 35.9 35.9445 35.9C38.6112 35.9 40.6112 35.25 41.9445 33.95C43.2779 32.65 44.1445 31.0333 44.5445 29.1C44.9445 27.1667 45.1945 24.7167 45.2945 21.75C45.2945 19.2167 44.9612 17.0167 44.2945 15.15C43.6612 13.2833 42.6445 12.1 41.2445 11.6C40.1112 11.1333 38.6112 10.9 36.7445 10.9C35.4445 10.9 34.2779 11.0333 33.2445 11.3C32.2112 11.5667 31.6779 11.8833 31.6445 12.25C31.6779 11.2167 31.6945 9.95 31.6945 8.45V6.15C31.6945 4.78333 31.6612 3.78333 31.5945 3.15L31.4945 1.4V0.85ZM39.5945 23.15C39.5945 24.9167 39.1779 26.45 38.3445 27.75C37.5112 29.05 36.4112 29.7 35.0445 29.7C33.9779 29.7 33.1779 29.4167 32.6445 28.85C32.1445 28.25 31.8112 27.45 31.6445 26.45C31.5112 25.45 31.4445 24.1167 31.4445 22.45C31.4445 20.5833 31.4945 19.2833 31.5945 18.55C31.7279 17.8167 31.9945 17.3333 32.3945 17.1C32.7945 16.8333 33.4945 16.7 34.4945 16.7C37.2945 16.7 38.8779 17.8833 39.2445 20.25C39.4779 20.8833 39.5945 21.85 39.5945 23.15ZM38.7445 20.3C38.5779 19.4667 38.2445 18.9167 37.7445 18.65C37.2445 18.35 36.4945 18.2 35.4945 18.2C34.6612 18.2 34.0779 18.3167 33.7445 18.55C33.4112 18.7833 33.1945 19.2333 33.0945 19.9C32.9945 20.5667 32.9445 21.75 32.9445 23.45V25C32.9445 26.4 33.0612 27.45 33.2945 28.15C33.5612 28.85 34.1445 29.2 35.0445 29.2C36.2779 29.2 37.2612 28.6 37.9945 27.4C38.7279 26.2 39.0945 24.7833 39.0945 23.15C39.0945 23.05 39.0945 22.6833 39.0945 22.05C39.0945 21.4167 38.9945 20.8667 38.7945 20.4L38.7445 20.3Z"
        fill="black" />
</svg>