<svg width="70" height="70" viewBox="0 0 70 70" fill="none" xmlns="http://www.w3.org/2000/svg">
<circle cx="35" cy="35" r="35" fill="black"/>
<path d="M34.12 24.28C34.12 26.7067 34.1733 30.24 34.28 34.88C34.3067 36.0267 34.3333 37.44 34.36 39.12C34.3867 40.8 34.4 42.7333 34.4 44.92C34.4 47.3733 34.3867 49.12 34.36 50.16L31.96 50.2C31.4267 50.2267 30.64 50.24 29.6 50.24C29.12 50.24 28.7467 50.1867 28.48 50.08C28.24 49.9733 28.12 49.76 28.12 49.44V49.36L27.6 49.32L27.52 49.24C26.8267 49.8267 25.96 50.12 24.92 50.12C23.7467 50.12 22.7067 49.9067 21.8 49.48C20.92 49.0533 20.1867 48.4933 19.6 47.8C17.4933 46.12 16.44 42.72 16.44 37.6C16.44 35.5467 16.7333 33.7333 17.32 32.16C17.9067 30.5867 18.7867 29.5733 19.96 29.12C20.9467 28.72 22.1867 28.52 23.68 28.52C25.28 28.52 26.5067 28.7467 27.36 29.2L27.28 25.12C27.28 24.5067 27.3067 23.7733 27.36 22.92L27.48 21.32V20.88C27.48 20.7467 27.8 20.6133 28.44 20.48C29.1067 20.3467 29.8267 20.28 30.6 20.28C31.64 20.28 32.5467 20.36 33.32 20.52V21.2L34.12 21.32V24.28ZM33.16 48.96C33.1867 48.0267 33.2 46.5733 33.2 44.6C33.2 42.44 33.1867 40.52 33.16 38.84C33.1333 37.1333 33.1067 35.6933 33.08 34.52C32.9733 29.72 32.92 26.04 32.92 23.48V20.84C32.36 20.7333 31.5867 20.68 30.6 20.68C29.9333 20.68 29.3067 20.7067 28.72 20.76C28.16 20.7867 27.88 20.8267 27.88 20.88V21.32L27.8 22.72C27.7467 23.2267 27.72 24.0267 27.72 25.12V26.96C27.72 28.16 27.7333 29.1733 27.76 30C27.6533 29.7067 27.2 29.4533 26.4 29.24C25.6 29.0267 24.68 28.92 23.64 28.92C22.44 28.92 21.2533 29.1067 20.08 29.48C18.96 29.88 18.1333 30.8267 17.6 32.32C17.0933 33.8133 16.84 35.5733 16.84 37.6C16.8933 39.8933 17.08 41.8267 17.4 43.4C17.7467 44.9733 18.4533 46.2933 19.52 47.36C20.6133 48.4 22.2133 48.92 24.32 48.92C25.68 48.92 26.6667 48.3333 27.28 47.16C27.3067 47.0533 27.36 47 27.44 47C27.5467 47 27.64 47.3067 27.72 47.92C27.8 48.5333 27.8133 48.8667 27.76 48.92C28.3733 49 29.0533 49.04 29.8 49.04L31.56 49C31.9333 48.9733 32.4667 48.96 33.16 48.96ZM25.48 33.56C26.28 33.56 26.84 33.6667 27.16 33.88C27.48 34.0667 27.68 34.4533 27.76 35.04C27.8667 35.6267 27.92 36.6667 27.92 38.16C27.92 39.4933 27.8533 40.56 27.72 41.36C27.6133 42.16 27.3467 42.8 26.92 43.28C26.52 43.7333 25.8933 43.96 25.04 43.96C23.9467 43.96 23.0667 43.44 22.4 42.4C21.7333 41.36 21.4 40.1333 21.4 38.72C21.4 37.68 21.4933 36.9067 21.68 36.4C21.9733 34.5067 23.24 33.56 25.48 33.56ZM27.52 36.64C27.52 35.92 27.44 35.4267 27.28 35.16C27.1467 34.8933 26.8133 34.76 26.28 34.76C24.2533 34.76 23.12 35.5867 22.88 37.24L22.84 37.32C22.68 37.6933 22.6 38.2533 22.6 39C22.6 42.04 23.4133 43.56 25.04 43.56C25.7867 43.56 26.3333 43.3467 26.68 42.92C27.0533 42.4667 27.28 41.88 27.36 41.16C27.4667 40.4133 27.52 39.4133 27.52 38.16V36.64ZM42.5156 23.72C42.569 24.5733 42.5956 25.3067 42.5956 25.92C42.5956 26.48 42.5823 26.9467 42.5556 27.32L42.5156 28.92C43.3156 28.6533 44.2756 28.52 45.3956 28.52C48.0356 28.52 50.0356 29.3467 51.3956 31C52.7556 32.6533 53.4356 35.12 53.4356 38.4C53.3556 40.72 53.129 42.7067 52.7556 44.36C52.3823 45.9867 51.6356 47.36 50.5156 48.48C49.4223 49.5733 47.7956 50.12 45.6356 50.12C44.249 50.12 43.2223 49.64 42.5556 48.68V49.44C42.5556 49.76 42.4223 49.9733 42.1556 50.08C41.9156 50.1867 41.5556 50.24 41.0756 50.24C40.0356 50.24 39.249 50.2267 38.7156 50.2L36.3156 50.16L36.2756 49.36H35.5156C35.489 48.32 35.4756 46.5733 35.4756 44.12C35.4756 42.04 35.489 40.1867 35.5156 38.56C35.5423 36.9333 35.569 35.5333 35.5956 34.36C35.7023 29.6133 35.7556 25.9867 35.7556 23.48V20.48C36.449 20.3467 37.3556 20.28 38.4756 20.28C39.249 20.28 39.9556 20.3467 40.5956 20.48C41.2623 20.6133 41.5956 20.7467 41.5956 20.88V21.32C42.129 21.4533 42.3956 21.5733 42.3956 21.68V22.12L42.5156 23.72ZM41.1956 20.88C41.1956 20.8267 40.9023 20.7867 40.3156 20.76C39.7556 20.7067 39.1423 20.68 38.4756 20.68C37.489 20.68 36.7156 20.7333 36.1556 20.84V23.48C36.1556 26.04 36.1023 29.72 35.9956 34.52C35.969 35.6667 35.9423 37.08 35.9156 38.76C35.889 40.44 35.8756 42.3733 35.8756 44.56C35.8756 46.56 35.889 48.0267 35.9156 48.96C36.769 48.96 37.4223 48.9733 37.8756 49L40.0356 49.04C40.9156 49.04 41.3556 48.9067 41.3556 48.64C41.3556 48.3467 41.369 48 41.3956 47.6C41.4223 47.2 41.5023 47 41.6356 47C41.6623 47 41.7156 47.0533 41.7956 47.16C42.3556 48.3333 43.3423 48.92 44.7556 48.92C46.889 48.92 48.489 48.4 49.5556 47.36C50.6223 46.32 51.3156 45.0267 51.6356 43.48C51.9556 41.9333 52.1556 39.9733 52.2356 37.6C52.2356 35.5733 51.969 33.8133 51.4356 32.32C50.929 30.8267 50.1156 29.88 48.9956 29.48C48.089 29.1067 46.889 28.92 45.3956 28.92C44.3556 28.92 43.4223 29.0267 42.5956 29.24C41.769 29.4533 41.3423 29.7067 41.3156 30C41.3423 29.1733 41.3556 28.16 41.3556 26.96V25.12C41.3556 24.0267 41.329 23.2267 41.2756 22.72L41.1956 21.32V20.88ZM47.6756 38.72C47.6756 40.1333 47.3423 41.36 46.6756 42.4C46.009 43.44 45.129 43.96 44.0356 43.96C43.1823 43.96 42.5423 43.7333 42.1156 43.28C41.7156 42.8 41.449 42.16 41.3156 41.36C41.209 40.56 41.1556 39.4933 41.1556 38.16C41.1556 36.6667 41.1956 35.6267 41.2756 35.04C41.3823 34.4533 41.5956 34.0667 41.9156 33.88C42.2356 33.6667 42.7956 33.56 43.5956 33.56C45.8356 33.56 47.1023 34.5067 47.3956 36.4C47.5823 36.9067 47.6756 37.68 47.6756 38.72ZM46.9956 36.44C46.8623 35.7733 46.5956 35.3333 46.1956 35.12C45.7956 34.88 45.1956 34.76 44.3956 34.76C43.729 34.76 43.2623 34.8533 42.9956 35.04C42.729 35.2267 42.5556 35.5867 42.4756 36.12C42.3956 36.6533 42.3556 37.6 42.3556 38.96V40.2C42.3556 41.32 42.449 42.16 42.6356 42.72C42.849 43.28 43.3156 43.56 44.0356 43.56C45.0223 43.56 45.809 43.08 46.3956 42.12C46.9823 41.16 47.2756 40.0267 47.2756 38.72C47.2756 38.64 47.2756 38.3467 47.2756 37.84C47.2756 37.3333 47.1956 36.8933 47.0356 36.52L46.9956 36.44Z" fill="#F7F700"/>
</svg>
